<svg xmlns="http://www.w3.org/2000/svg" xmlns:xlink="http://www.w3.org/1999/xlink" width="26.024" height="48.194" viewBox="0 0 26.024 48.194">
  <defs>
    <clipPath id="clip-path">
      <rect id="Rectángulo_126" data-name="Rectángulo 126" width="26.024" height="48.194" fill="#d9d9cb"/>
    </clipPath>
  </defs>
  <g id="Grupo_448" data-name="Grupo 448" clip-path="url(#clip-path)">
    <path id="Trazado_3513" data-name="Trazado 3513" d="M2.283,0A11.92,11.92,0,0,1,3.652,1.025q10.762,10.7,21.5,21.422a5.843,5.843,0,0,1,.451.479,1.848,1.848,0,0,1,0,2.342,4.41,4.41,0,0,1-.351.379Q14.327,36.547,3.4,47.447a1.961,1.961,0,0,1-2.068.662,1.848,1.848,0,0,1-.979-2.85,4.517,4.517,0,0,1,.5-.558q10.113-10.084,20.23-20.164a3.015,3.015,0,0,0,.513-.551,2.4,2.4,0,0,1-.481-.294Q10.947,13.565.786,3.429A1.954,1.954,0,0,1,.168,1.105,2.322,2.322,0,0,1,1.436,0Z" transform="translate(0)" fill="#d9d9cb"/>
  </g>
</svg>
