<svg xmlns="http://www.w3.org/2000/svg" width="35.275" height="520.46" viewBox="0 0 35.275 520.46">
  <g id="Grupo_57" data-name="Grupo 57" transform="translate(-1753.629 -5704.456)">
    <g id="Grupo_56" data-name="Grupo 56">
      <text id="_1_250_ISO200_F20.8" data-name="1/250 ISO200 F20.8" transform="translate(1758.976 6183.671) rotate(-90)" fill="#d9d9cb" font-size="5.451" font-family="Vonnes-BookCondensed, Vonnes" letter-spacing="0.1em"><tspan x="0" y="0">1/250 ISO200 F20.8</tspan></text>
      <text id="_1_250_ISO200_F20.8-2" data-name="1/250 ISO200 F20.8" transform="translate(1758.976 5772.844) rotate(-90)" fill="#d9d9cb" font-size="5.451" font-family="Vonnes-BookCondensed, Vonnes" letter-spacing="0.1em"><tspan x="0" y="0">1/250 ISO200 F20.8</tspan></text>
      <g id="Grupo_55" data-name="Grupo 55">
        <text id="_A_185_C_106" data-name=" A 185 C 106" transform="translate(1758.976 5891.393) rotate(-90)" fill="#d9d9cb" font-size="5.451" font-family="Vonnes-BookCondensed, Vonnes" letter-spacing="0.1em"><tspan x="0" y="0" xml:space="preserve"> A 185 C 106</tspan></text>
        <path id="Trazado_105" data-name="Trazado 105" d="M1756.988,5901.1a3.354,3.354,0,1,1,3.343-3.664A3.361,3.361,0,0,1,1756.988,5901.1Zm1.908-5.493a2.8,2.8,0,0,0-2.793-.577,2.861,2.861,0,0,0-1.271,4.6l.884-.879c-.356-.05-.719-.1-1.08-.153-.053-.008-.068-.024-.067-.077,0-.253,0-.506,0-.759,0-.019,0-.04.005-.066.6.112,1.2.223,1.816.338v-1.287l.1.013c.34.05.678.1,1.018.15a.117.117,0,0,0,.115-.039c.265-.267.532-.533.8-.8C1758.577,5895.919,1758.73,5895.768,1758.9,5895.6Zm-3.819,4.277a2.79,2.79,0,0,0,2.692.608,2.864,2.864,0,0,0,1.367-4.638l-.768.758,1.122.992-1.355.805c0-.174,0-.327,0-.478,0-.06-.02-.08-.075-.09-.241-.044-.481-.091-.723-.136a.14.14,0,0,0-.068,0,.428.428,0,0,0-.19.267q0,.446,0,.891v.088c-.3-.043-.585-.081-.872-.125a.11.11,0,0,0-.107.037c-.075.078-.153.154-.23.23C1755.613,5899.349,1755.351,5899.609,1755.077,5899.882Zm3.054-3.034-.145.132.145.018Z" fill="#d9d9cb"/>
      </g>
    </g>
    <line id="Línea_46" data-name="Línea 46" y2="520.46" transform="translate(1788.279 5704.456)" fill="none" stroke="#d9d9cb" stroke-miterlimit="10" stroke-width="1.25"/>
  </g>
</svg>
