<svg xmlns="http://www.w3.org/2000/svg" width="819.398" height="33.563" viewBox="0 0 819.398 33.563">
  <g id="Grupo_69" data-name="Grupo 69" transform="translate(-199.572 -12852.508)">
    <g id="Grupo_68" data-name="Grupo 68">
      <text id="_1_250_ISO200_F20.8" data-name="1/250 ISO200 F20.8" transform="translate(252.218 12861.063)" fill="#191919" font-size="8.721" font-family="Vonnes-BookCondensed, Vonnes" letter-spacing="0.1em"><tspan x="0" y="0">1/250 ISO200 F20.8</tspan></text>
      <text id="_1_250_ISO200_F20.8-2" data-name="1/250 ISO200 F20.8" transform="translate(909.547 12861.063)" fill="#191919" font-size="8.721" font-family="Vonnes-BookCondensed, Vonnes" letter-spacing="0.1em"><tspan x="0" y="0">1/250 ISO200 F20.8</tspan></text>
      <g id="Grupo_67" data-name="Grupo 67">
        <text id="_A_185_C_106" data-name=" A 185 C 106" transform="translate(719.867 12861.063)" fill="#191919" font-size="8.721" font-family="Vonnes-BookCondensed, Vonnes" letter-spacing="0.1em"><tspan x="0" y="0" xml:space="preserve"> A 185 C 106</tspan></text>
        <path id="Trazado_114" data-name="Trazado 114" d="M704.34,12857.88a5.367,5.367,0,1,1,5.863,5.348A5.377,5.377,0,0,1,704.34,12857.88Zm8.79,3.053a4.48,4.48,0,0,0,.924-4.468,4.58,4.58,0,0,0-7.366-2.032c.478.481.942.946,1.407,1.413.082-.569.167-1.148.246-1.728.011-.083.039-.109.123-.109.4,0,.808,0,1.213,0a1.019,1.019,0,0,1,.107.011c-.18.967-.358,1.926-.54,2.9H711.3c-.008.067-.014.116-.021.162-.079.543-.157,1.087-.241,1.629a.193.193,0,0,0,.063.185q.642.639,1.28,1.276C712.626,12860.422,712.868,12860.669,713.13,12860.933Zm-6.844-6.106a4.456,4.456,0,0,0-.972,4.3,4.582,4.582,0,0,0,7.419,2.188l-1.212-1.229c-.525.593-1.05,1.188-1.587,1.793-.433-.728-.854-1.437-1.288-2.167.279,0,.522,0,.765,0,.095,0,.128-.031.144-.119.069-.386.145-.77.217-1.155a.254.254,0,0,0,.006-.109.689.689,0,0,0-.429-.3h-1.565c.068-.479.13-.937.2-1.394a.173.173,0,0,0-.059-.173c-.125-.119-.245-.244-.368-.367C707.14,12855.679,706.723,12855.262,706.286,12854.826Zm4.855,4.884-.212-.233c-.012.094-.021.158-.03.233Z" fill="#191919"/>
      </g>
    </g>
    <line id="Línea_49" data-name="Línea 49" x1="819.398" transform="translate(199.572 12885.599)" fill="none" stroke="#191919" stroke-miterlimit="10" stroke-width="0.943"/>
  </g>
</svg>
