<svg xmlns="http://www.w3.org/2000/svg" viewBox="0 0 1299.95 23.55"><defs><style>.cls-1{font-size:21.18px;font-family:Montserrat-Regular, Montserrat;}.cls-1,.cls-9{fill:#fff;}.cls-2{letter-spacing:-0.01em;}.cls-3{letter-spacing:3.81em;}.cls-4{letter-spacing:0em;}.cls-5{letter-spacing:4.34em;}.cls-6{letter-spacing:-0.01em;}.cls-7{letter-spacing:-0.02em;}.cls-8{letter-spacing:2.35em;}</style></defs><g id="Capa_2" data-name="Capa 2"><g id="Capa_1-2" data-name="Capa 1"><text class="cls-1" transform="translate(0 18.01) scale(0.99 1)">a<tspan class="cls-2" x="12.5" y="0">r</tspan><tspan x="20.74" y="0">g </tspan><tspan class="cls-3" x="40.82" y="0"> </tspan><tspan class="cls-4" x="127.1" y="0"> </tspan></text><text class="cls-1" transform="translate(250.44 18.01) scale(0.99 1)"> </text><text class="cls-1" transform="translate(375.67 18.01) scale(0.99 1)"> </text><text class="cls-1" transform="translate(500.89 18.01) scale(0.99 1)">&gt; 5<tspan class="cls-5" x="29.72" y="0"> </tspan><tspan class="cls-4" x="127.1" y="0"> </tspan></text><text class="cls-1" transform="translate(751.33 18.01) scale(0.99 1)"> </text><text class="cls-1" transform="translate(876.56 18.01) scale(0.99 1)">· <tspan class="cls-6" x="10.89" y="0">2</tspan><tspan class="cls-7" x="22.77" y="0">-</tspan><tspan x="30.52" y="0">100 </tspan><tspan class="cls-8" x="71.77" y="0"> </tspan><tspan x="127.14" y="0"> </tspan></text><text class="cls-1" transform="translate(1127 18.01) scale(0.99 1)"> </text><text class="cls-1" transform="translate(1252.22 18.01) scale(0.99 1)">ﬁllm</text><rect class="cls-9" x="268.48" y="8.39" width="13.04" height="13.23"/><rect class="cls-9" x="685.91" y="8.39" width="13.04" height="13.23"/><rect class="cls-9" x="1096.39" y="8.39" width="13.04" height="13.23"/></g></g></svg>