<svg xmlns="http://www.w3.org/2000/svg" width="38.907" height="38.822" viewBox="0 0 38.907 38.822">
  <path id="Trazado_29" data-name="Trazado 29" d="M1379.773,839.141c0-4.928-.034-9.857.011-14.784.033-3.543.958-4.438,4.538-4.445q14.853-.031,29.708,0c3.6.008,4.614,1.035,4.623,4.7q.03,14.639,0,29.278c-.006,3.7-.929,4.752-4.585,4.778q-14.853.1-29.707.005c-3.687-.02-4.548-.971-4.58-4.752C1379.743,849,1379.773,844.068,1379.773,839.141Zm32.912,13.348c0-3.66.06-7.023-.029-10.381a15.638,15.638,0,0,0-.649-3.975,4.694,4.694,0,0,0-3.936-3.441c-2.462-.4-4.861-.3-6.684,1.8a2.761,2.761,0,0,1-.679.41c-.19-.645-.346-1.178-.511-1.737h-4.56V852.4h4.557a3.128,3.128,0,0,0,.305-.765c.041-2.314.019-4.631.108-6.944a13.845,13.845,0,0,1,.465-3.409,2.974,2.974,0,0,1,3.312-2.22,2.65,2.65,0,0,1,2.8,2.736c.235,2.392.164,4.814.25,7.222.04,1.116.137,2.23.217,3.472Zm-26.364-17.427v17.324h4.948c-.056-5.9.1-11.545-.1-17.324Zm5.414-5.9a3.021,3.021,0,0,0-2.626-3.252,3.232,3.232,0,0,0-3.481,2.789,3.317,3.317,0,0,0,3.007,3.312A3.091,3.091,0,0,0,1391.735,829.165Z" transform="translate(-1379.761 -819.896)" fill="#d8d8c9"/>
</svg>
