<svg xmlns="http://www.w3.org/2000/svg" width="41.681" height="41.652" viewBox="0 0 41.681 41.652">
  <g id="Grupo_6" data-name="Grupo 6" transform="translate(-1217.974 -818.492)">
    <path id="Trazado_26" data-name="Trazado 26" d="M1259.655,839.339c-.058,2.9-.09,5.806-.181,8.708a13.373,13.373,0,0,1-1.535,6.163,10.759,10.759,0,0,1-7.571,5.444,25.806,25.806,0,0,1-4.882.426c-2.33.049-4.661.074-6.99.061q-4.194-.027-8.386-.145a13.413,13.413,0,0,1-6.169-1.52,10.685,10.685,0,0,1-5.411-7.308,25.705,25.705,0,0,1-.491-5.306c-.045-2.078-.081-4.157-.057-6.236.037-3.285.064-6.57.215-9.851a11.642,11.642,0,0,1,2.358-6.727,10.62,10.62,0,0,1,7.068-4.111,46.193,46.193,0,0,1,5.209-.381c2.077-.071,4.159-.071,6.238-.055,2.818.023,5.638.06,8.456.147a13.146,13.146,0,0,1,6.54,1.746,10.787,10.787,0,0,1,5.067,7.36,29.08,29.08,0,0,1,.438,5.563c.03,2.007.007,4.014.007,6.022Zm-3.749,0h-.071c0-1.685.038-3.371-.01-5.055-.048-1.73-.091-3.467-.295-5.181a7.085,7.085,0,0,0-5.883-6.41,24.032,24.032,0,0,0-4.957-.383q-5.412-.065-10.827-.011a49.936,49.936,0,0,0-5.289.294,7.084,7.084,0,0,0-6.4,5.892,24.589,24.589,0,0,0-.383,5.064q-.047,6.095.027,12.188a29.492,29.492,0,0,0,.327,4.208,7.03,7.03,0,0,0,5.725,5.99,24.439,24.439,0,0,0,5.1.4q6.434.036,12.869-.051a22.519,22.519,0,0,0,3.948-.381,6.735,6.735,0,0,0,5.017-3.827,9.38,9.38,0,0,0,.886-3.813C1255.783,845.288,1255.835,842.313,1255.906,839.339Z" fill="#d8d8c9"/>
    <path id="Trazado_27" data-name="Trazado 27" d="M1249.488,839.365a10.689,10.689,0,1,1-10.573-10.731A10.671,10.671,0,0,1,1249.488,839.365Zm-3.766-.019a6.923,6.923,0,1,0-6.954,6.9A6.926,6.926,0,0,0,1245.722,839.346Z" fill="#d8d8c9"/>
    <path id="Trazado_28" data-name="Trazado 28" d="M1249.938,825.716a2.5,2.5,0,1,1-2.53,2.468A2.473,2.473,0,0,1,1249.938,825.716Z" fill="#d8d8c9"/>
  </g>
</svg>
