<svg xmlns="http://www.w3.org/2000/svg" width="42.342" height="29.924" viewBox="0 0 42.342 29.924">
  <path id="Trazado_30" data-name="Trazado 30" d="M1322.178,824.259c5.074.275,10.01.455,14.93.841,3.6.281,5.357,2.085,5.876,5.638a57.262,57.262,0,0,1,.072,16.427c-.625,4.371-2.306,6.145-6.711,6.5-3.571.285-7.156.543-10.734.521-5.615-.033-11.233-.223-16.843-.516-4.447-.232-6.237-1.87-6.894-6.273a55.791,55.791,0,0,1,.144-17.275c.481-2.955,2.221-4.717,5.212-4.969C1312.242,824.726,1317.275,824.538,1322.178,824.259Zm-3.763,9.227c.055,4.011-.1,7.592.11,11.562l10.14-5.729Z" transform="translate(-1301.271 -824.259)" fill="#d8d8c9"/>
</svg>
