<svg xmlns="http://www.w3.org/2000/svg" width="28.365" height="28.304" viewBox="0 0 28.365 28.304">
  <path id="Trazado_29" data-name="Trazado 29" d="M1379.77,833.927c0-3.593-.025-7.186.008-10.778.024-2.583.7-3.236,3.308-3.241q10.828-.023,21.659,0c2.627.006,3.364.754,3.37,3.429q.022,10.672,0,21.345c0,2.7-.677,3.464-3.343,3.483q-10.829.072-21.658,0c-2.688-.015-3.316-.708-3.339-3.464C1379.748,841.112,1379.77,837.519,1379.77,833.927Zm23.995,9.731c0-2.668.044-5.12-.021-7.568a11.4,11.4,0,0,0-.473-2.9,3.422,3.422,0,0,0-2.869-2.509c-1.8-.291-3.544-.222-4.873,1.313a2.021,2.021,0,0,1-.495.3l-.373-1.266h-3.325v12.562h3.322a2.284,2.284,0,0,0,.223-.558c.03-1.687.014-3.376.079-5.063a10.094,10.094,0,0,1,.339-2.485,2.168,2.168,0,0,1,2.415-1.618,1.932,1.932,0,0,1,2.038,1.995c.171,1.744.12,3.51.182,5.265.029.814.1,1.626.158,2.531Zm-19.221-12.705v12.63h3.607c-.041-4.3.072-8.417-.074-12.63Zm3.947-4.3a2.2,2.2,0,0,0-1.915-2.371,2.357,2.357,0,0,0-2.538,2.033,2.418,2.418,0,0,0,2.192,2.414A2.253,2.253,0,0,0,1388.491,826.654Z" transform="translate(-1379.761 -819.896)" fill="#d8d8c9"/>
</svg>
