<svg xmlns="http://www.w3.org/2000/svg" width="18" height="17.4" viewBox="0 0 18 17.4">
  <g id="Grupo_612" data-name="Grupo 612" transform="translate(-312 -198)">
    <rect id="Rectángulo_168" data-name="Rectángulo 168" width="18" height="17.4" rx="1" transform="translate(312 198)"/>
    <path id="Trazado_3681" data-name="Trazado 3681" d="M1480.023,14719.022c1.291.068,2.546.114,3.8.21a1.451,1.451,0,0,1,1.494,1.405,13.981,13.981,0,0,1,.018,4.1,1.587,1.587,0,0,1-1.706,1.619c-.908.071-1.82.137-2.729.131-1.428-.008-2.857-.056-4.283-.13a1.562,1.562,0,0,1-1.754-1.563,13.619,13.619,0,0,1,.037-4.3,1.359,1.359,0,0,1,1.325-1.244C1477.5,14719.137,1478.777,14719.093,1480.023,14719.022Zm-.956,2.3c.014,1-.024,1.895.028,2.885l2.579-1.43C1480.762,14722.27,1479.96,14721.821,1479.067,14721.321Z" transform="translate(-1159.026 -14516.228)" fill="#d9d9cb"/>
  </g>
</svg>
