<svg xmlns="http://www.w3.org/2000/svg" width="42" height="30.197" viewBox="0 0 42 30.197">
  <path id="Trazado_139" data-name="Trazado 139" d="M1506.139,14648.831c5.036.279,9.931.461,14.81.85,3.568.284,5.315,2.105,5.829,5.689a58.748,58.748,0,0,1,.072,16.577c-.619,4.411-2.287,6.2-6.656,6.556-3.542.287-7.1.547-10.646.525-5.569-.034-11.143-.225-16.706-.521-4.412-.234-6.188-1.888-6.839-6.329a57.248,57.248,0,0,1,.142-17.434c.478-2.982,2.2-4.761,5.17-5.015C1496.284,14649.3,1501.276,14649.114,1506.139,14648.831Zm-3.73,9.313c.054,4.048-.094,7.662.109,11.666l10.059-5.779Z" transform="translate(-1485.402 -14648.831)"/>
</svg>
