<svg xmlns="http://www.w3.org/2000/svg" width="17.565" height="17.391" viewBox="0 0 17.565 17.391">
  <path id="Trazado_3680" data-name="Trazado 3680" d="M1594.866,14721.25c0-2.207-.015-4.413,0-6.622.015-1.587.433-1.987,2.049-1.989q6.707-.013,13.413,0c1.626,0,2.083.463,2.086,2.106q.014,6.557,0,13.114c0,1.655-.42,2.129-2.07,2.142q-6.706.045-13.412,0c-1.664-.01-2.053-.437-2.067-2.13C1594.853,14725.667,1594.866,14723.459,1594.866,14721.25Zm14.859,5.98c0-1.64.027-3.146-.013-4.651a6.971,6.971,0,0,0-.292-1.779,2.115,2.115,0,0,0-1.777-1.541,3.023,3.023,0,0,0-3.017.8,1.174,1.174,0,0,1-.307.185c-.085-.289-.156-.526-.23-.777h-2.059v7.719h2.057a1.407,1.407,0,0,0,.138-.342c.019-1.037.009-2.075.048-3.11a6.145,6.145,0,0,1,.21-1.528,1.344,1.344,0,0,1,1.495-1,1.194,1.194,0,0,1,1.263,1.227c.106,1.072.074,2.156.113,3.235.018.5.062,1,.1,1.556Zm-11.9-7.808v7.762h2.234c-.026-2.645.045-5.173-.045-7.762Zm2.444-2.64a1.356,1.356,0,0,0-1.186-1.457,1.456,1.456,0,0,0-1.572,1.25,1.49,1.49,0,0,0,1.358,1.482A1.391,1.391,0,0,0,1600.267,14716.783Z" transform="translate(-1594.861 -14712.632)"/>
</svg>
