<svg xmlns="http://www.w3.org/2000/svg" width="16.539" height="16.374" viewBox="0 0 16.539 16.374">
  <path id="Trazado_3624" data-name="Trazado 3624" d="M1594.866,14720.746c0-2.078-.014-4.156,0-6.235.014-1.494.407-1.871,1.929-1.873q6.315-.013,12.629,0c1.531,0,1.961.436,1.965,1.983q.013,6.173,0,12.348c0,1.559-.4,2-1.949,2.016q-6.313.044-12.628,0c-1.567-.009-1.933-.41-1.946-2C1594.853,14724.9,1594.866,14722.825,1594.866,14720.746Zm13.99,5.631c0-1.544.026-2.962-.012-4.38a6.557,6.557,0,0,0-.275-1.675,1.992,1.992,0,0,0-1.674-1.452,2.846,2.846,0,0,0-2.841.759,1.143,1.143,0,0,1-.289.174c-.08-.272-.147-.5-.217-.732h-1.939v7.268h1.937a1.326,1.326,0,0,0,.13-.322c.017-.976.008-1.953.045-2.929a5.8,5.8,0,0,1,.2-1.438,1.265,1.265,0,0,1,1.407-.937,1.125,1.125,0,0,1,1.189,1.155c.1,1.009.07,2.03.106,3.046.017.471.058.939.092,1.465Zm-11.207-7.352v7.308h2.1c-.024-2.489.043-4.87-.043-7.308Zm2.3-2.486a1.276,1.276,0,0,0-1.117-1.371,1.371,1.371,0,0,0-1.48,1.177,1.4,1.4,0,0,0,1.279,1.4A1.31,1.31,0,0,0,1599.951,14716.539Z" transform="translate(-1594.861 -14712.631)"/>
</svg>
