<svg xmlns="http://www.w3.org/2000/svg" width="7.942" height="7.943" viewBox="0 0 7.942 7.943">
  <path id="phone" d="M7.833,6.6,6.713,7.716a.81.81,0,0,1-.6.227,5.179,5.179,0,0,1-2.568-.968,9.9,9.9,0,0,1-3-3.27A4.23,4.23,0,0,1,0,1.842a.815.815,0,0,1,.227-.606L1.349.116a.37.37,0,0,1,.606.1l.9,1.708a.5.5,0,0,1-.1.564L2.343,2.9A.2.2,0,0,0,2.3,3.02,3.517,3.517,0,0,0,3.361,4.585,3.519,3.519,0,0,0,4.831,5.625.233.233,0,0,0,5.045,5.6l.48-.488a.548.548,0,0,1,.581-.084h.008l1.625.959a.391.391,0,0,1,.093.614Z" transform="translate(0 0)"/>
</svg>
