<svg xmlns="http://www.w3.org/2000/svg" width="17.999" height="12.721" viewBox="0 0 17.999 12.721">
  <path id="Trazado_3625" data-name="Trazado 3625" d="M1483.594,14719.021c2.158.117,4.256.193,6.347.357a2.45,2.45,0,0,1,2.5,2.4,24.314,24.314,0,0,1,.031,6.982c-.265,1.859-.98,2.613-2.853,2.762-1.518.121-3.042.23-4.562.223-2.387-.014-4.775-.1-7.159-.219-1.891-.1-2.652-.8-2.931-2.668a23.7,23.7,0,0,1,.061-7.342,2.288,2.288,0,0,1,2.216-2.115C1479.37,14719.219,1481.51,14719.141,1483.594,14719.021Zm-1.6,3.922c.023,1.705-.041,3.227.047,4.914l4.311-2.434Z" transform="translate(-1474.707 -14719.021)"/>
</svg>
