<svg xmlns="http://www.w3.org/2000/svg" width="42" height="41.91" viewBox="0 0 42 41.91">
  <path id="Trazado_138" data-name="Trazado 138" d="M1605.568,14664.216c0-5.32-.035-10.64.013-15.958.035-3.824,1.034-4.792,4.9-4.8q16.035-.034,32.071,0c3.889.007,4.981,1.117,4.99,5.077q.034,15.8,0,31.605c-.006,3.992-1,5.13-4.95,5.158q-16.033.108-32.07.007c-3.98-.023-4.91-1.051-4.942-5.131C1605.536,14674.856,1605.568,14669.536,1605.568,14664.216Zm35.53,14.409c0-3.95.065-7.58-.031-11.206a16.982,16.982,0,0,0-.7-4.29,5.073,5.073,0,0,0-4.25-3.715c-2.657-.433-5.248-.329-7.214,1.944a2.942,2.942,0,0,1-.734.441l-.551-1.874h-4.923v18.6h4.919a3.4,3.4,0,0,0,.33-.827c.044-2.5.021-5,.116-7.5a14.945,14.945,0,0,1,.5-3.681,3.209,3.209,0,0,1,3.574-2.4,2.86,2.86,0,0,1,3.021,2.953c.252,2.582.177,5.2.269,7.795.043,1.206.149,2.407.234,3.748Zm-28.459-18.812v18.7h5.341c-.061-6.368.108-12.463-.11-18.7Zm5.845-6.366a3.263,3.263,0,0,0-2.836-3.51,3.491,3.491,0,0,0-3.758,3.011,3.582,3.582,0,0,0,3.247,3.577A3.34,3.34,0,0,0,1618.483,14653.446Z" transform="translate(-1605.556 -14643.442)"/>
</svg>
