<svg xmlns="http://www.w3.org/2000/svg" width="30.87" height="21.816" viewBox="0 0 30.87 21.816">
  <path id="Trazado_30" data-name="Trazado 30" d="M1316.513,824.259c3.7.2,7.3.332,10.885.613,2.622.2,3.905,1.52,4.284,4.11a41.748,41.748,0,0,1,.052,11.976c-.456,3.187-1.681,4.48-4.893,4.736-2.6.208-5.217.4-7.826.38-4.094-.024-8.189-.163-12.279-.376-3.242-.169-4.547-1.363-5.026-4.573a40.675,40.675,0,0,1,.1-12.594,3.921,3.921,0,0,1,3.8-3.623C1309.269,824.6,1312.939,824.462,1316.513,824.259Zm-2.743,6.727c.04,2.924-.069,5.535.08,8.429l7.393-4.177Z" transform="translate(-1301.271 -824.259)" fill="#d8d8c9"/>
</svg>
