<svg xmlns="http://www.w3.org/2000/svg" width="30.387" height="30.367" viewBox="0 0 30.387 30.367">
  <g id="Grupo_6" data-name="Grupo 6" transform="translate(0)">
    <path id="Trazado_26" data-name="Trazado 26" d="M1248.362,833.691c-.042,2.116-.066,4.233-.132,6.349a9.749,9.749,0,0,1-1.119,4.493,7.844,7.844,0,0,1-5.52,3.969,18.817,18.817,0,0,1-3.559.311c-1.7.036-3.4.054-5.1.044q-3.058-.02-6.114-.106a9.778,9.778,0,0,1-4.5-1.108,7.79,7.79,0,0,1-3.945-5.328,18.744,18.744,0,0,1-.358-3.868c-.033-1.515-.059-3.031-.041-4.546.027-2.395.047-4.79.157-7.182a8.488,8.488,0,0,1,1.719-4.9,7.742,7.742,0,0,1,5.153-3,33.693,33.693,0,0,1,3.8-.278c1.514-.052,3.032-.052,4.548-.04,2.054.017,4.11.044,6.165.107a9.584,9.584,0,0,1,4.768,1.273,7.865,7.865,0,0,1,3.694,5.366,21.2,21.2,0,0,1,.319,4.056c.022,1.463.005,2.926.005,4.39Zm-2.733,0h-.052c0-1.229.028-2.458-.007-3.685-.035-1.261-.066-2.528-.215-3.777a5.165,5.165,0,0,0-4.289-4.673,17.518,17.518,0,0,0-3.614-.279q-3.946-.047-7.893-.008a36.388,36.388,0,0,0-3.856.214,5.165,5.165,0,0,0-4.668,4.3,17.937,17.937,0,0,0-.279,3.692q-.034,4.443.02,8.886a21.508,21.508,0,0,0,.238,3.068,5.126,5.126,0,0,0,4.174,4.367,17.819,17.819,0,0,0,3.717.29q4.69.026,9.382-.037a16.423,16.423,0,0,0,2.878-.278,4.91,4.91,0,0,0,3.658-2.79,6.84,6.84,0,0,0,.646-2.78C1245.539,838.028,1245.577,835.859,1245.628,833.691Z" transform="translate(-1217.974 -818.492)" fill="#d8d8c9"/>
    <path id="Trazado_27" data-name="Trazado 27" d="M1243.7,836.457a7.793,7.793,0,1,1-7.708-7.823A7.78,7.78,0,0,1,1243.7,836.457Zm-2.746-.014a5.047,5.047,0,1,0-5.07,5.028A5.049,5.049,0,0,0,1240.95,836.444Z" transform="translate(-1220.721 -821.24)" fill="#d8d8c9"/>
    <path id="Trazado_28" data-name="Trazado 28" d="M1249.252,825.716a1.822,1.822,0,1,1-1.844,1.8A1.8,1.8,0,0,1,1249.252,825.716Z" transform="translate(-1225.949 -820.45)" fill="#d8d8c9"/>
  </g>
</svg>
