<svg id="Grupo_13" data-name="Grupo 13" xmlns="http://www.w3.org/2000/svg" width="819.398" height="33.562" viewBox="0 0 819.398 33.562">
  <g id="Grupo_12" data-name="Grupo 12" transform="translate(52.646)">
    <text id="_1_250_ISO200_F20.8" data-name="1/250 ISO200 F20.8" transform="translate(0 8.556)" fill="#191919" font-size="8.721" font-family="MyriadPro-Regular, Myriad Pro" letter-spacing="0.1em"><tspan x="0" y="0">1/250 ISO200 F20.8</tspan></text>
    <text id="_1_250_ISO200_F20.8-2" data-name="1/250 ISO200 F20.8" transform="translate(657.329 8.556)" fill="#191919" font-size="8.721" font-family="MyriadPro-Regular, Myriad Pro" letter-spacing="0.1em"><tspan x="0" y="0">1/250 ISO200 F20.8</tspan></text>
    <g id="Grupo_11" data-name="Grupo 11" transform="translate(452.121)">
      <text id="_A_185_C_106" data-name=" A 185 C 106" transform="translate(15.528 8.556)" fill="#191919" font-size="8.721" font-family="MyriadPro-Regular, Myriad Pro" letter-spacing="0.1em"><tspan x="0" y="0" xml:space="preserve"> A 185 C 106</tspan></text>
      <path id="Trazado_53" data-name="Trazado 53" d="M3504.327,3448.811a5.367,5.367,0,1,1,5.863,5.348A5.376,5.376,0,0,1,3504.327,3448.811Zm8.79,3.053a4.475,4.475,0,0,0,.923-4.468,4.578,4.578,0,0,0-7.365-2.032c.479.48.942.946,1.407,1.413.081-.571.167-1.15.245-1.729.012-.083.039-.108.123-.108.405,0,.809,0,1.214,0,.032,0,.064.006.107.01-.179.966-.358,1.925-.54,2.9h2.057c-.009.066-.013.115-.021.162-.079.543-.156,1.087-.24,1.629a.184.184,0,0,0,.063.183q.641.639,1.278,1.278C3512.613,3451.353,3512.855,3451.6,3513.117,3451.864Zm-6.844-6.108a4.459,4.459,0,0,0-.972,4.3,4.58,4.58,0,0,0,7.419,2.187l-1.212-1.227-1.587,1.793-1.288-2.167c.278,0,.521,0,.765,0,.095,0,.128-.031.144-.119.07-.386.145-.771.217-1.157a.238.238,0,0,0,.006-.109.7.7,0,0,0-.429-.3h-1.564c.067-.477.129-.936.2-1.392a.175.175,0,0,0-.059-.173c-.125-.119-.246-.244-.368-.367Zm4.855,4.884c-.073-.079-.135-.147-.212-.232-.012.092-.02.158-.03.232Z" transform="translate(-3504.327 -3443.439)" fill="#191919"/>
    </g>
  </g>
  <line id="Línea_1" data-name="Línea 1" x1="819.398" transform="translate(0 33.091)" fill="none" stroke="#191919" stroke-miterlimit="10" stroke-width="0.943"/>
</svg>
