<svg xmlns="http://www.w3.org/2000/svg" width="35.274" height="520.46" viewBox="0 0 35.274 520.46">
  <g id="Grupo_83" data-name="Grupo 83" transform="translate(-1692.017 -2691.927)">
    <g id="Grupo_82" data-name="Grupo 82">
      <text id="_1_250_ISO200_F20.8" data-name="1/250 ISO200 F20.8" transform="translate(1697.363 3171.143) rotate(-90)" fill="#cecec0" font-size="5.451" font-family="Vonnes-BookCondensed, Vonnes" letter-spacing="0.1em"><tspan x="0" y="0">1/250 ISO200 F20.8</tspan></text>
      <text id="_1_250_ISO200_F20.8-2" data-name="1/250 ISO200 F20.8" transform="translate(1697.363 2760.316) rotate(-90)" fill="#cecec0" font-size="5.451" font-family="Vonnes-BookCondensed, Vonnes" letter-spacing="0.1em"><tspan x="0" y="0">1/250 ISO200 F20.8</tspan></text>
      <g id="Grupo_81" data-name="Grupo 81">
        <text id="_A_185_C_106" data-name=" A 185 C 106" transform="translate(1697.363 2878.865) rotate(-90)" fill="#cecec0" font-size="5.451" font-family="Vonnes-BookCondensed, Vonnes" letter-spacing="0.1em"><tspan x="0" y="0" xml:space="preserve"> A 185 C 106</tspan></text>
        <path id="Trazado_74" data-name="Trazado 74" d="M1695.375,2888.57a3.355,3.355,0,1,1,3.342-3.665A3.361,3.361,0,0,1,1695.375,2888.57Zm1.908-5.494a2.8,2.8,0,0,0-2.793-.577,2.862,2.862,0,0,0-1.27,4.6l.883-.879c-.356-.051-.718-.1-1.08-.154-.052-.007-.068-.024-.067-.077,0-.252,0-.5,0-.758a.626.626,0,0,1,.006-.067l1.815.338v-1.286l.1.013c.339.049.678.1,1.017.15a.118.118,0,0,0,.115-.039q.4-.4.8-.8C1696.964,2883.391,1697.118,2883.239,1697.283,2883.076Zm-3.818,4.277a2.786,2.786,0,0,0,2.691.608,2.863,2.863,0,0,0,1.367-4.637l-.767.757,1.121.993-1.355.8c0-.174,0-.326,0-.478,0-.059-.02-.08-.075-.09-.241-.043-.481-.09-.722-.135a.149.149,0,0,0-.069,0,.434.434,0,0,0-.19.268v.978c-.3-.042-.585-.081-.87-.125a.11.11,0,0,0-.108.037c-.075.079-.153.154-.229.231Zm3.053-3.034-.145.133.145.018Z" fill="#cecec0"/>
      </g>
    </g>
    <line id="Línea_21" data-name="Línea 21" y2="520.46" transform="translate(1726.666 2691.927)" fill="none" stroke="#cecec0" stroke-miterlimit="10" stroke-width="1.25"/>
  </g>
</svg>
