<svg xmlns="http://www.w3.org/2000/svg" viewBox="0 0 220.16 64.54"><defs><style>.cls-1{fill:#fff;}.cls-2{fill:#ff8366;}</style></defs><g id="Capa_2" data-name="Capa 2"><g id="Capa_1-2" data-name="Capa 1"><path class="cls-1" d="M78.79,29.6a9,9,0,1,1-4.15-17,9.32,9.32,0,0,1,4.17.94,2,2,0,0,0,.87.21,2.15,2.15,0,0,0,2.11-2.13,10.89,10.89,0,0,0-7.79-3,13,13,0,0,0,0,25.94,12,12,0,0,0,4.37-.8,10.61,10.61,0,0,0,3.42-2.21,2.11,2.11,0,0,0-3-1.94"/><path class="cls-1" d="M85.19,9.1V34a4.23,4.23,0,0,0,4.24-4.23V9.1Z"/><path class="cls-1" d="M108,8.6a12.73,12.73,0,0,0-9.81,4.84L98,9.1H94V34.05h4.23V21.33c0-3.55,2.38-8.73,8.29-8.73,3.85,0,6.52,2.36,6.52,8.62V34.05h4.23V19.45c0-7.06-3.5-10.85-9.27-10.85"/><path class="cls-1" d="M144.57,21.82c0-7-4.84-13.21-12.48-13.21-7.4,0-12.48,5.81-12.48,12.82,0,7.54,5.33,13.12,12.88,13.12,6.56,0,10.4-4.35,11.39-7.75l-3.76-.49a8.1,8.1,0,0,1-7.63,4.44c-5.13,0-8.49-3.31-8.64-7.85h20.72Zm-20.72-2a8.28,8.28,0,0,1,16.48,0Z"/><path class="cls-1" d="M157.43,8.6c-2.31,0-4.23,1.53-5.77,3.66l-.19-3.16h-4V34.05h4.25V21.62c0-4.68,1.63-9,5.47-9a4.82,4.82,0,0,1,2.66.79l.74-3.7a4.71,4.71,0,0,0-3.16-1.09"/><path class="cls-1" d="M170.75,30c-3,0-4.83-.39-4.83-1.67,0-.64.54-1.19,1.43-1.58a11.55,11.55,0,0,0,3.74.6c5.83,0,10.32-4.06,10.32-9.38a8.61,8.61,0,0,0-1.78-5.32l2.91.25a3.47,3.47,0,0,0-3.79-3.46L176,9.69a11.54,11.54,0,0,0-4.94-1.09c-5.86,0-10.3,4-10.3,9.37a8.93,8.93,0,0,0,4,7.5c-1.43.69-2.86,1.88-2.86,3.55a3.79,3.79,0,0,0,2.27,3.2,6.62,6.62,0,0,0-3.4,5.73,2,2,0,0,0,0,.25h4a1.34,1.34,0,0,1,0-.35c0-1.93,1.88-3.66,3.4-4.34.5,0,.94.1,1.44.1,5.23,0,9,1.13,9,4.38a1.48,1.48,0,0,1,0,.21h4a2,2,0,0,0,0-.25c0-4.83-4.44-8-11.84-8m.34-17.85c3.51,0,6.26,2.47,6.26,5.82s-2.75,5.77-6.26,5.77-6.31-2.46-6.31-5.77a6,6,0,0,1,6.31-5.82"/><path class="cls-1" d="M185.35,9.1V34a4.23,4.23,0,0,0,4.24-4.23V9.1Z"/><path class="cls-1" d="M216.12,9.1l-.19,5.66A10.92,10.92,0,0,0,205.86,8.6a12.68,12.68,0,0,0-12.62,12.92,12.71,12.71,0,0,0,12.62,13,10.93,10.93,0,0,0,10.07-6.17l.19,5.66a4,4,0,0,0,4-4V9.1ZM206.5,30.55a9,9,0,1,1,0-18,9,9,0,1,1,0,18"/><polygon class="cls-1" points="72.54 43.34 72.54 44.1 68.47 44.1 68.47 46.52 72.1 46.52 72.1 47.27 68.47 47.27 68.47 49.79 72.67 49.79 72.67 50.55 67.64 50.55 67.64 43.34 72.54 43.34"/><path class="cls-1" d="M79.75,44.11c-.93,0-1.54.37-1.54,1,0,1.87,4.06.89,4.05,3.51,0,1.2-1.06,2-2.61,2a4.11,4.11,0,0,1-2.76-1.1l.37-.71a3.63,3.63,0,0,0,2.4,1c1,0,1.69-.43,1.69-1.13,0-1.92-4-.9-4-3.49,0-1.13,1-1.86,2.5-1.86a4.25,4.25,0,0,1,2.28.67l-.34.74a3.79,3.79,0,0,0-2-.6"/><polygon class="cls-1" points="91.81 43.34 91.81 44.1 89.45 44.1 89.45 50.55 88.62 50.55 88.62 44.1 86.27 44.1 86.27 43.34 91.81 43.34"/><path class="cls-1" d="M99.18,49.83a2,2,0,0,0,2.2-2.25V43.33h.82v4.25a3,3,0,0,1-6.06,0V43.33H97v4.25a2.05,2.05,0,0,0,2.21,2.25"/><path class="cls-1" d="M114.15,46.94a3.61,3.61,0,0,1-3.74,3.61h-2.89V43.34h2.92a3.58,3.58,0,0,1,3.71,3.6m-.83,0a2.83,2.83,0,0,0-2.9-2.85h-2.07v5.69h2.1A2.81,2.81,0,0,0,113.32,47"/><rect class="cls-1" x="118.96" y="43.34" width="0.83" height="7.22"/><path class="cls-1" d="M132.15,46.94a3.78,3.78,0,1,1-3.78-3.63,3.69,3.69,0,0,1,3.78,3.63m-6.73,0a2.94,2.94,0,0,0,5.88,0,2.94,2.94,0,0,0-5.88,0"/><path class="cls-2" d="M146.44,44.07a2.87,2.87,0,1,0,0,5.74,3.14,3.14,0,0,0,2.13-.87l.51.55a4,4,0,0,1-2.68,1.09,3.64,3.64,0,1,1,0-7.27,3.91,3.91,0,0,1,2.64,1.06l-.5.59a3.07,3.07,0,0,0-2.13-.89"/><path class="cls-2" d="M158.58,50.55l-1.51-2.31-.47,0h-1.91v2.29h-.83V43.33h2.74c1.81,0,2.85.89,2.85,2.43a2.26,2.26,0,0,1-1.63,2.33l1.7,2.46Zm-2-3c1.31,0,2.06-.59,2.06-1.72s-.75-1.68-2.06-1.68h-1.91v3.4Z"/><polygon class="cls-2" points="169.51 43.34 169.51 44.1 165.44 44.1 165.44 46.52 169.08 46.52 169.08 47.27 165.44 47.27 165.44 49.79 169.65 49.79 169.65 50.55 164.62 50.55 164.62 43.34 169.51 43.34"/><path class="cls-2" d="M179.19,48.7h-3.93l-.81,1.85h-.87l3.24-7.22h.85l3.23,7.22H180Zm-.33-.76-1.64-3.71-1.62,3.71Z"/><polygon class="cls-2" points="189.21 43.34 189.21 44.1 186.85 44.1 186.85 50.55 186.02 50.55 186.02 44.1 183.67 44.1 183.67 43.34 189.21 43.34"/><rect class="cls-2" x="193.7" y="43.34" width="0.83" height="7.22"/><polygon class="cls-2" points="199.87 43.34 202.36 49.62 204.85 43.34 205.72 43.34 202.77 50.55 201.91 50.55 198.99 43.34 199.87 43.34"/><path class="cls-2" d="M217,46.94a3.78,3.78,0,1,1-3.78-3.63A3.69,3.69,0,0,1,217,46.94m-6.73,0a2.94,2.94,0,0,0,5.88,0,2.94,2.94,0,0,0-5.88,0"/><path class="cls-2" d="M16.36,2.37a24.72,24.72,0,0,0-4.13,2.11A25.94,25.94,0,0,1,25.84,0a24.83,24.83,0,0,0-9.77,1.65A25.34,25.34,0,0,0,0,25.26,25.37,25.37,0,0,0,16.07,48.84a25,25,0,0,0,9.77,1.66A26,26,0,0,1,12.15,46a24.6,24.6,0,0,0,4.21,2.16,24.09,24.09,0,0,0,9.48,1.6,25.28,25.28,0,0,1-13.27-4.39A22.74,22.74,0,0,0,25.84,49,24.39,24.39,0,0,1,13,44.72a23,23,0,0,0,4,2,22.47,22.47,0,0,0,8.9,1.48,23.59,23.59,0,0,1-12.43-4.13A22.17,22.17,0,0,0,17.23,46a21.75,21.75,0,0,0,8.61,1.42,23,23,0,0,1-12-4,22.19,22.19,0,0,0,3.7,1.88,20.86,20.86,0,0,0,8.32,1.36,22.2,22.2,0,0,1-11.6-3.87,21.38,21.38,0,0,0,3.57,1.81,20.3,20.3,0,0,0,8,1.31A21.5,21.5,0,0,1,14.66,42.2a20.56,20.56,0,0,0,3.44,1.74,19.58,19.58,0,0,0,7.74,1.25,20.74,20.74,0,0,1-10.76-3.63,19.07,19.07,0,0,0,3.31,1.68,18.86,18.86,0,0,0,7.45,1.19,19.82,19.82,0,0,1-10.34-3.5,18.62,18.62,0,0,0,3.18,1.61,17.79,17.79,0,0,0,7.16,1.13,19.05,19.05,0,0,1-9.92-3.37,17.8,17.8,0,0,0,3,1.54,17.07,17.07,0,0,0,6.87,1.07,18.25,18.25,0,0,1-9.5-3.24,17.36,17.36,0,0,0,2.92,1.47,16.53,16.53,0,0,0,6.58,1A17.67,17.67,0,0,1,16.76,39a16.18,16.18,0,0,0,2.79,1.4,15.79,15.79,0,0,0,6.29,1,16.94,16.94,0,0,1-8.67-3,14.53,14.53,0,0,0,8.67,2.23,16.14,16.14,0,0,1-8.25-2.86A15.39,15.39,0,0,0,20.13,39a14,14,0,0,0,5.71.84A15.26,15.26,0,0,1,18,37.14a13.88,13.88,0,0,0,2.41,1.2,13.43,13.43,0,0,0,5.42.79,14.6,14.6,0,0,1-7.41-2.62,13.07,13.07,0,0,0,2.28,1.13,12.71,12.71,0,0,0,5.13.73,13.86,13.86,0,0,1-7-2.49A12.71,12.71,0,0,0,21,36.94a12,12,0,0,0,4.84.67,12.84,12.84,0,0,1-8.4-4,12.22,12.22,0,0,1,0-16.81,12.94,12.94,0,0,1,8.4-4,12,12,0,0,0-4.84.67,12.91,12.91,0,0,0-2.11,1,13.84,13.84,0,0,1,7-2.46,12.54,12.54,0,0,0-5.13.72A13.68,13.68,0,0,0,18.47,14a14.63,14.63,0,0,1,7.37-2.58,13.26,13.26,0,0,0-5.42.78,14.49,14.49,0,0,0-2.37,1.17,15.43,15.43,0,0,1,7.79-2.71,14.32,14.32,0,0,0-5.71.84,14.82,14.82,0,0,0-2.49,1.24,16.16,16.16,0,0,1,8.2-2.84,15.07,15.07,0,0,0-6,.9,15.63,15.63,0,0,0-2.62,1.31,16.87,16.87,0,0,1,8.62-3,15.79,15.79,0,0,0-6.29,1,16.69,16.69,0,0,0-2.74,1.37,17.68,17.68,0,0,1,9-3.09,16.53,16.53,0,0,0-6.58,1,17.5,17.5,0,0,0-2.87,1.44A18.38,18.38,0,0,1,25.84,7.6,16.54,16.54,0,0,0,16,10.18a19.12,19.12,0,0,1,9.86-3.34A18,18,0,0,0,18.68,8a18.6,18.6,0,0,0-3.12,1.57A20,20,0,0,1,25.84,6.08a18.86,18.86,0,0,0-7.45,1.19,19.7,19.7,0,0,0-3.24,1.64A20.64,20.64,0,0,1,25.84,5.32,19.58,19.58,0,0,0,18.1,6.57a20.52,20.52,0,0,0-3.37,1.71A21.34,21.34,0,0,1,25.84,4.57a20.11,20.11,0,0,0-8,1.3,21.68,21.68,0,0,0-3.5,1.77A22.22,22.22,0,0,1,25.84,3.81a21,21,0,0,0-8.32,1.36A22.39,22.39,0,0,0,13.9,7a22.86,22.86,0,0,1,11.94-4,21.75,21.75,0,0,0-8.61,1.42,22.43,22.43,0,0,0-3.75,1.91A23.72,23.72,0,0,1,25.84,2.29a22.65,22.65,0,0,0-8.9,1.48,22.77,22.77,0,0,0-3.87,2A24.46,24.46,0,0,1,25.84,1.53a23.37,23.37,0,0,0-9.19,1.54,24.29,24.29,0,0,0-4,2A25.17,25.17,0,0,1,25.84.78a23.9,23.9,0,0,0-9.48,1.59"/><path class="cls-2" d="M35.71,62.17a24.43,24.43,0,0,0,4.14-2.11,26,26,0,0,1-13.61,4.47A24.79,24.79,0,0,0,36,62.87a25.33,25.33,0,0,0,8.4-41.75A25.9,25.9,0,0,0,36,15.7a24.78,24.78,0,0,0-9.76-1.65,26,26,0,0,1,13.69,4.51,23.72,23.72,0,0,0-13.69-3.75,25.18,25.18,0,0,1,13.27,4.38,23.87,23.87,0,0,0-4.09-2.09,23.32,23.32,0,0,0-9.18-1.54,24.51,24.51,0,0,1,12.85,4.26,23.43,23.43,0,0,0-4-2,22.57,22.57,0,0,0-8.89-1.48,23.79,23.79,0,0,1,12.43,4.13,22.62,22.62,0,0,0-3.83-1.95,21.85,21.85,0,0,0-8.6-1.42,22.83,22.83,0,0,1,12,4,21.5,21.5,0,0,0-3.7-1.89,21,21,0,0,0-8.31-1.36,22.06,22.06,0,0,1,11.59,3.88,20.68,20.68,0,0,0-3.57-1.82,20.06,20.06,0,0,0-8-1.3,21.26,21.26,0,0,1,11.17,3.75A20.23,20.23,0,0,0,34,20.6a19.5,19.5,0,0,0-7.73-1.25A20.74,20.74,0,0,1,37,23a18.48,18.48,0,0,0-10.76-2.87,19.94,19.94,0,0,1,10.34,3.5A18.35,18.35,0,0,0,33.39,22a18.06,18.06,0,0,0-7.15-1.13,19.14,19.14,0,0,1,9.92,3.37A17.54,17.54,0,0,0,33.1,22.7a17.17,17.17,0,0,0-6.86-1.07,18.37,18.37,0,0,1,9.5,3.24,17,17,0,0,0-2.93-1.46,16.11,16.11,0,0,0-6.57-1,17.5,17.5,0,0,1,9.08,3.12,16.32,16.32,0,0,0-2.8-1.41,15.74,15.74,0,0,0-6.28-1,16.91,16.91,0,0,1,8.66,3,15.68,15.68,0,0,0-2.66-1.32,14.9,14.9,0,0,0-6-.91,16.18,16.18,0,0,1,8.25,2.87,14.39,14.39,0,0,0-2.55-1.26,14.11,14.11,0,0,0-5.7-.85,15.42,15.42,0,0,1,7.83,2.74,14,14,0,0,0-2.42-1.2,13.21,13.21,0,0,0-5.41-.78A14.58,14.58,0,0,1,33.65,28a13.43,13.43,0,0,0-2.28-1.13,12.56,12.56,0,0,0-5.13-.72,13.69,13.69,0,0,1,7,2.48,11.5,11.5,0,0,0-7-1.73,12.89,12.89,0,0,1,8.4,3.95,12.22,12.22,0,0,1,0,16.81,12.84,12.84,0,0,1-8.4,4A12,12,0,0,0,31.08,51a12.86,12.86,0,0,0,2.11-1,13.87,13.87,0,0,1-6.95,2.46,12.74,12.74,0,0,0,5.13-.73,14.08,14.08,0,0,0,2.24-1.1,14.64,14.64,0,0,1-7.37,2.59,13.46,13.46,0,0,0,5.42-.79A14,14,0,0,0,34,51.2a15.27,15.27,0,0,1-7.78,2.71A14,14,0,0,0,32,53.07a16,16,0,0,0,2.49-1.23,16.18,16.18,0,0,1-8.2,2.83,14.72,14.72,0,0,0,6-.9,15.88,15.88,0,0,0,2.61-1.3,16.92,16.92,0,0,1-8.61,3,15.74,15.74,0,0,0,6.28-1,16.4,16.4,0,0,0,2.75-1.37,17.59,17.59,0,0,1-9,3.09,16.46,16.46,0,0,0,6.57-1,16.84,16.84,0,0,0,2.88-1.44A18.39,18.39,0,0,1,26.24,57a17.25,17.25,0,0,0,6.87-1.08,17.79,17.79,0,0,0,3-1.5,19.13,19.13,0,0,1-9.86,3.33,17.71,17.71,0,0,0,7.15-1.13A18.69,18.69,0,0,0,36.52,55a19.84,19.84,0,0,1-10.28,3.46,18.2,18.2,0,0,0,10.69-2.83,20.64,20.64,0,0,1-10.69,3.59A19.5,19.5,0,0,0,34,58a20.17,20.17,0,0,0,3.38-1.7A21.55,21.55,0,0,1,26.24,60,19.77,19.77,0,0,0,37.76,56.9a22.16,22.16,0,0,1-11.52,3.84,21,21,0,0,0,8.31-1.37,21.33,21.33,0,0,0,3.63-1.84,22.86,22.86,0,0,1-11.94,4,21.68,21.68,0,0,0,8.6-1.42,22.15,22.15,0,0,0,3.76-1.91,23.69,23.69,0,0,1-12.36,4.09,22.39,22.39,0,0,0,8.89-1.48,23.18,23.18,0,0,0,3.88-2A24.47,24.47,0,0,1,26.24,63a23.32,23.32,0,0,0,9.18-1.54,24,24,0,0,0,4-2,25.27,25.27,0,0,1-13.19,4.34,24,24,0,0,0,9.47-1.6"/></g></g></svg>