<svg xmlns="http://www.w3.org/2000/svg" width="158.099" height="46.348" viewBox="0 0 158.099 46.348">
  <g id="Grupo_70" data-name="Grupo 70" transform="translate(-266.241 -14650.271)">
    <path id="Trazado_115" data-name="Trazado 115" d="M322.822,14671.527a6.486,6.486,0,1,1-2.985-12.208,6.735,6.735,0,0,1,3,.673,1.45,1.45,0,0,0,.626.147,1.54,1.54,0,0,0,1.513-1.527,7.835,7.835,0,0,0-5.6-2.161,9.315,9.315,0,0,0,0,18.629,8.5,8.5,0,0,0,3.14-.577,7.565,7.565,0,0,0,2.46-1.585,1.516,1.516,0,0,0-2.155-1.391" fill="#191919"/>
    <path id="Trazado_116" data-name="Trazado 116" d="M327.417,14656.8v17.915a3.04,3.04,0,0,0,3.043-3.042V14656.8Z" fill="#191919"/>
    <path id="Trazado_117" data-name="Trazado 117" d="M343.811,14656.449a9.134,9.134,0,0,0-7.045,3.469l-.14-3.115h-2.87v17.915H336.8v-9.134c0-2.549,1.7-6.266,5.952-6.266,2.763,0,4.679,1.693,4.679,6.19v9.209h3.042v-10.482c0-5.065-2.516-7.786-6.66-7.786" fill="#191919"/>
    <path id="Trazado_118" data-name="Trazado 118" d="M370.054,14665.937c0-5.063-3.469-9.487-8.961-9.487a8.9,8.9,0,0,0-8.961,9.209,9.019,9.019,0,0,0,9.248,9.421,8.306,8.306,0,0,0,8.18-5.566l-2.7-.353a5.83,5.83,0,0,1-5.484,3.188c-3.682,0-6.091-2.375-6.2-5.632h14.872Zm-14.872-1.413a5.667,5.667,0,0,1,5.911-5.354,5.726,5.726,0,0,1,5.919,5.354Z" fill="#191919"/>
    <path id="Trazado_119" data-name="Trazado 119" d="M379.3,14656.449c-1.661,0-3.042,1.094-4.144,2.623l-.139-2.27h-2.87v17.915h3.05v-8.922c0-3.362,1.168-6.478,3.93-6.478a3.416,3.416,0,0,1,1.908.567l.534-2.655a3.392,3.392,0,0,0-2.269-.781" fill="#191919"/>
    <path id="Trazado_120" data-name="Trazado 120" d="M388.856,14671.815c-2.162,0-3.469-.279-3.469-1.2,0-.461.386-.855,1.028-1.135a8.337,8.337,0,0,0,2.688.428c4.185,0,7.408-2.91,7.408-6.734a6.22,6.22,0,0,0-1.275-3.823l2.089.183a2.492,2.492,0,0,0-2.722-2.484l-1.957.182a8.279,8.279,0,0,0-3.543-.781c-4.209,0-7.4,2.869-7.4,6.725a6.416,6.416,0,0,0,2.869,5.386,3.1,3.1,0,0,0-2.054,2.55,2.725,2.725,0,0,0,1.627,2.3,4.744,4.744,0,0,0-2.442,4.111,1.3,1.3,0,0,0,.008.18h2.879a1.17,1.17,0,0,1-.018-.254c0-1.381,1.349-2.623,2.442-3.115.353.033.673.072,1.027.072,3.758,0,6.446.813,6.446,3.149a.912.912,0,0,1-.008.147h2.87a1.487,1.487,0,0,0,.007-.18c0-3.47-3.189-5.706-8.5-5.706M389.1,14659a4.173,4.173,0,1,1,0,8.32,4.175,4.175,0,1,1,0-8.32" fill="#191919"/>
    <path id="Trazado_121" data-name="Trazado 121" d="M399.339,14656.8v17.915a3.042,3.042,0,0,0,3.051-3.042V14656.8Z" fill="#191919"/>
    <path id="Trazado_122" data-name="Trazado 122" d="M421.438,14656.8l-.14,4.071a7.836,7.836,0,0,0-7.226-4.424,9.319,9.319,0,0,0,0,18.631,7.842,7.842,0,0,0,7.226-4.432l.14,4.068a2.9,2.9,0,0,0,2.9-2.9V14656.8Zm-6.906,15.408a6.445,6.445,0,1,1,0-12.891,6.445,6.445,0,0,1,0,12.891" fill="#191919"/>
    <path id="Trazado_123" data-name="Trazado 123" d="M318.33,14681.389v.548h-2.923v1.739h2.612v.539h-2.612v1.808h3.02v.547h-3.612v-5.181Z" fill="#191919"/>
    <path id="Trazado_124" data-name="Trazado 124" d="M323.507,14681.943c-.667,0-1.1.267-1.1.711,0,1.348,2.917.644,2.91,2.523,0,.859-.763,1.413-1.873,1.413a2.948,2.948,0,0,1-1.983-.792l.266-.51a2.6,2.6,0,0,0,1.724.725c.748,0,1.214-.3,1.214-.8.008-1.385-2.908-.653-2.908-2.511,0-.814.718-1.331,1.792-1.331a3.065,3.065,0,0,1,1.641.479l-.251.526a2.736,2.736,0,0,0-1.428-.43" fill="#191919"/>
    <path id="Trazado_125" data-name="Trazado 125" d="M332.169,14681.389v.548h-1.7v4.633h-.592v-4.633h-1.687v-.548Z" fill="#191919"/>
    <path id="Trazado_126" data-name="Trazado 126" d="M337.464,14686.05a1.461,1.461,0,0,0,1.577-1.611v-3.051h.592v3.051a2.176,2.176,0,0,1-4.352,0v-3.051h.592v3.051a1.471,1.471,0,0,0,1.591,1.611" fill="#191919"/>
    <path id="Trazado_127" data-name="Trazado 127" d="M348.215,14683.978a2.589,2.589,0,0,1-2.687,2.593h-2.073v-5.183h2.1a2.579,2.579,0,0,1,2.665,2.59m-.6.009a2.035,2.035,0,0,0-2.08-2.051h-1.487v4.087h1.51a2.012,2.012,0,0,0,2.057-2.036" fill="#191919"/>
    <rect id="Rect치ngulo_79" data-name="Rect치ngulo 79" width="0.593" height="5.182" transform="translate(351.666 14681.389)" fill="#191919"/>
    <path id="Trazado_128" data-name="Trazado 128" d="M361.135,14683.979a2.715,2.715,0,1,1-2.709-2.6,2.644,2.644,0,0,1,2.709,2.6m-4.826,0a2.11,2.11,0,0,0,4.219,0,2.11,2.11,0,0,0-4.219,0" fill="#191919"/>
    <path id="Trazado_129" data-name="Trazado 129" d="M371.4,14681.914a2.062,2.062,0,1,0,0,4.123,2.268,2.268,0,0,0,1.533-.621l.363.391a2.844,2.844,0,0,1-1.925.784,2.61,2.61,0,1,1,.022-5.217,2.807,2.807,0,0,1,1.9.754l-.355.43a2.2,2.2,0,0,0-1.533-.644" fill="#ff8366"/>
    <path id="Trazado_130" data-name="Trazado 130" d="M380.119,14686.57l-1.086-1.658c-.1.007-.216.015-.335.015h-1.376v1.644h-.592v-5.183H378.7c1.3,0,2.045.638,2.045,1.74a1.619,1.619,0,0,1-1.171,1.672l1.223,1.771Zm-1.421-2.192c.942,0,1.475-.421,1.475-1.236,0-.792-.533-1.205-1.475-1.205h-1.376v2.441Z" fill="#ff8366"/>
    <path id="Trazado_131" data-name="Trazado 131" d="M387.969,14681.389v.548h-2.923v1.739h2.613v.539h-2.613v1.808h3.018v.547h-3.611v-5.181Z" fill="#ff8366"/>
    <path id="Trazado_132" data-name="Trazado 132" d="M394.915,14685.245H392.1l-.579,1.325h-.628l2.324-5.183h.614l2.317,5.183H395.5Zm-.237-.548-1.177-2.664-1.162,2.664Z" fill="#ff8366"/>
    <path id="Trazado_133" data-name="Trazado 133" d="M402.112,14681.389v.548h-1.694v4.633h-.593v-4.633h-1.687v-.548Z" fill="#ff8366"/>
    <rect id="Rect치ngulo_80" data-name="Rect치ngulo 80" width="0.594" height="5.182" transform="translate(405.341 14681.389)" fill="#ff8366"/>
    <path id="Trazado_134" data-name="Trazado 134" d="M409.771,14681.389l1.783,4.514,1.791-4.514h.621l-2.116,5.181h-.615l-2.1-5.181Z" fill="#ff8366"/>
    <path id="Trazado_135" data-name="Trazado 135" d="M422.067,14683.979a2.715,2.715,0,1,1-2.709-2.6,2.644,2.644,0,0,1,2.709,2.6m-4.827,0a2.11,2.11,0,0,0,4.22,0,2.111,2.111,0,0,0-4.22,0" fill="#ff8366"/>
    <path id="Trazado_136" data-name="Trazado 136" d="M277.992,14651.974a17.562,17.562,0,0,0-2.969,1.517,18.632,18.632,0,0,1,9.776-3.207,17.8,17.8,0,0,0-7.016,1.187,18.2,18.2,0,0,0,0,33.87,17.756,17.756,0,0,0,7.015,1.191,18.666,18.666,0,0,1-9.836-3.242,17.7,17.7,0,0,0,3.029,1.549,17.228,17.228,0,0,0,6.807,1.148,18.088,18.088,0,0,1-9.533-3.151,16.921,16.921,0,0,0,2.935,1.5,16.676,16.676,0,0,0,6.6,1.106,17.557,17.557,0,0,1-9.232-3.059,16.5,16.5,0,0,0,2.842,1.45,16.12,16.12,0,0,0,6.39,1.064,17.016,17.016,0,0,1-8.931-2.967,16,16,0,0,0,2.749,1.4,15.578,15.578,0,0,0,6.182,1.022,16.458,16.458,0,0,1-8.631-2.877,15.6,15.6,0,0,0,2.657,1.353,15.067,15.067,0,0,0,5.974.979,15.914,15.914,0,0,1-8.328-2.783,14.975,14.975,0,0,0,2.562,1.3,14.523,14.523,0,0,0,5.766.938,15.382,15.382,0,0,1-8.028-2.691,14.419,14.419,0,0,0,2.471,1.25,13.955,13.955,0,0,0,5.557.9,14.839,14.839,0,0,1-7.728-2.6,13.7,13.7,0,0,0,2.379,1.2,13.414,13.414,0,0,0,5.349.856,14.277,14.277,0,0,1-7.427-2.512,13.422,13.422,0,0,0,2.286,1.153,12.892,12.892,0,0,0,5.141.813,13.731,13.731,0,0,1-7.125-2.419,12.843,12.843,0,0,0,2.192,1.1,12.317,12.317,0,0,0,4.933.772,13.2,13.2,0,0,1-6.825-2.33,12.152,12.152,0,0,0,2.1,1.054,11.754,11.754,0,0,0,4.725.732,12.65,12.65,0,0,1-6.526-2.239,11.537,11.537,0,0,0,2.009,1,11.267,11.267,0,0,0,4.517.691,12.1,12.1,0,0,1-6.224-2.148,10.943,10.943,0,0,0,1.916.955,10.7,10.7,0,0,0,4.308.649,11.578,11.578,0,0,1-5.926-2.059,10.442,10.442,0,0,0,1.826.905,10.159,10.159,0,0,0,4.1.609,11.024,11.024,0,0,1-5.623-1.967,9.894,9.894,0,0,0,1.731.855,9.615,9.615,0,0,0,3.892.567,10.476,10.476,0,0,1-5.324-1.877,9.457,9.457,0,0,0,1.64.807,9.071,9.071,0,0,0,3.684.525,9.94,9.94,0,0,1-5.025-1.787,8.956,8.956,0,0,0,1.549.759,8.515,8.515,0,0,0,3.476.483,9.244,9.244,0,0,1-6.036-2.836,8.775,8.775,0,0,1,0-12.068,9.24,9.24,0,0,1,6.034-2.837,8.529,8.529,0,0,0-3.476.479,8.961,8.961,0,0,0-1.519.743,9.947,9.947,0,0,1,5-1.767,9.018,9.018,0,0,0-3.684.521,9.632,9.632,0,0,0-1.609.79,10.5,10.5,0,0,1,5.293-1.856,9.6,9.6,0,0,0-3.892.563,10.1,10.1,0,0,0-1.7.839,11.038,11.038,0,0,1,5.592-1.947,10.163,10.163,0,0,0-4.1.605,10.652,10.652,0,0,0-1.789.887,11.571,11.571,0,0,1,5.89-2.035,10.686,10.686,0,0,0-4.309.646,11.237,11.237,0,0,0-1.88.937,12.113,12.113,0,0,1,6.189-2.127,11.214,11.214,0,0,0-4.517.688,11.456,11.456,0,0,0-1.969.983,12.668,12.668,0,0,1,6.486-2.218,11.805,11.805,0,0,0-4.725.732,12.044,12.044,0,0,0-2.061,1.032,13.178,13.178,0,0,1,6.786-2.308,12.317,12.317,0,0,0-4.933.772,12.688,12.688,0,0,0-2.152,1.08,13.757,13.757,0,0,1,7.085-2.4,12.842,12.842,0,0,0-5.141.815,13.059,13.059,0,0,0-2.241,1.127,14.283,14.283,0,0,1,7.382-2.486,13.423,13.423,0,0,0-5.35.857,13.734,13.734,0,0,0-2.332,1.174,14.831,14.831,0,0,1,7.682-2.575,13.963,13.963,0,0,0-5.558.9,14.5,14.5,0,0,0-2.423,1.223,15.4,15.4,0,0,1,7.981-2.665,14.516,14.516,0,0,0-5.767.94,14.9,14.9,0,0,0-2.512,1.271A15.935,15.935,0,0,1,284.8,14653a15.077,15.077,0,0,0-5.975.981,15.493,15.493,0,0,0-2.6,1.32,16.475,16.475,0,0,1,8.579-2.845,15.6,15.6,0,0,0-6.182,1.022,15.93,15.93,0,0,0-2.7,1.368,17.015,17.015,0,0,1,8.878-2.935,16.178,16.178,0,0,0-6.391,1.063,16.6,16.6,0,0,0-2.785,1.418,17.567,17.567,0,0,1,9.176-3.024,16.681,16.681,0,0,0-6.6,1.1,17.285,17.285,0,0,0-2.876,1.466,18.1,18.1,0,0,1,9.475-3.113,17.226,17.226,0,0,0-6.807,1.146" fill="#ff8366"/>
    <path id="Trazado_137" data-name="Trazado 137" d="M291.888,14694.914a17.612,17.612,0,0,0,2.968-1.515,18.65,18.65,0,0,1-9.775,3.206,17.808,17.808,0,0,0,7.015-1.187,18.2,18.2,0,0,0,0-33.871,17.8,17.8,0,0,0-7.015-1.188,18.651,18.651,0,0,1,9.836,3.241,17.643,17.643,0,0,0-3.03-1.55,17.2,17.2,0,0,0-6.806-1.147,18.109,18.109,0,0,1,9.533,3.149,17.2,17.2,0,0,0-2.935-1.5,16.7,16.7,0,0,0-6.6-1.1,17.553,17.553,0,0,1,9.232,3.058,16.566,16.566,0,0,0-2.842-1.45,16.118,16.118,0,0,0-6.39-1.062,16.993,16.993,0,0,1,8.931,2.966,16,16,0,0,0-2.749-1.4,15.613,15.613,0,0,0-6.182-1.022,16.467,16.467,0,0,1,8.631,2.877,15.5,15.5,0,0,0-2.658-1.353,15.08,15.08,0,0,0-5.973-.979,15.925,15.925,0,0,1,8.328,2.783,14.826,14.826,0,0,0-2.562-1.3,14.5,14.5,0,0,0-5.766-.939,15.369,15.369,0,0,1,8.027,2.693,14.346,14.346,0,0,0-2.47-1.251,13.982,13.982,0,0,0-5.557-.9,14.823,14.823,0,0,1,7.728,2.6,13.608,13.608,0,0,0-2.38-1.2,13.393,13.393,0,0,0-5.348-.857,14.288,14.288,0,0,1,7.427,2.512,13.176,13.176,0,0,0-2.287-1.151,12.872,12.872,0,0,0-5.14-.816,13.755,13.755,0,0,1,7.124,2.42,12.766,12.766,0,0,0-2.192-1.1,12.362,12.362,0,0,0-4.932-.774,13.194,13.194,0,0,1,6.825,2.33,12.09,12.09,0,0,0-2.1-1.052,11.76,11.76,0,0,0-4.723-.733,12.642,12.642,0,0,1,6.525,2.24,11.465,11.465,0,0,0-2.008-1,11.248,11.248,0,0,0-4.517-.692,12.126,12.126,0,0,1,6.223,2.149,11.028,11.028,0,0,0-1.914-.955,10.706,10.706,0,0,0-4.309-.649,11.566,11.566,0,0,1,5.925,2.06,10.511,10.511,0,0,0-1.825-.907,10.162,10.162,0,0,0-4.1-.607,11.01,11.01,0,0,1,5.623,1.967,10.043,10.043,0,0,0-1.731-.857,9.581,9.581,0,0,0-3.892-.564,10.475,10.475,0,0,1,5.324,1.876,9.541,9.541,0,0,0-1.64-.81,9.093,9.093,0,0,0-3.684-.522,9.942,9.942,0,0,1,5.025,1.786,8.863,8.863,0,0,0-1.55-.76,8.509,8.509,0,0,0-3.475-.481,9.241,9.241,0,0,1,6.036,2.836,8.774,8.774,0,0,1,0,12.067,9.239,9.239,0,0,1-6.034,2.838,8.532,8.532,0,0,0,3.476-.48,9.113,9.113,0,0,0,1.519-.744,9.953,9.953,0,0,1-4.995,1.769,9.042,9.042,0,0,0,3.684-.521,9.636,9.636,0,0,0,1.609-.791,10.5,10.5,0,0,1-5.293,1.857,9.605,9.605,0,0,0,3.893-.564,10.127,10.127,0,0,0,1.7-.839,11.033,11.033,0,0,1-5.592,1.948,10.17,10.17,0,0,0,4.1-.607,10.72,10.72,0,0,0,1.789-.885,11.6,11.6,0,0,1-5.89,2.036,10.688,10.688,0,0,0,4.309-.648,11.152,11.152,0,0,0,1.88-.935,12.119,12.119,0,0,1-6.189,2.127,11.23,11.23,0,0,0,4.517-.69,11.52,11.52,0,0,0,1.969-.981,12.652,12.652,0,0,1-6.486,2.217,11.824,11.824,0,0,0,4.725-.731,12.364,12.364,0,0,0,2.061-1.03,13.224,13.224,0,0,1-6.786,2.306,12.344,12.344,0,0,0,4.932-.773,12.653,12.653,0,0,0,2.152-1.08,13.75,13.75,0,0,1-7.084,2.4,12.854,12.854,0,0,0,5.14-.815,13.111,13.111,0,0,0,2.243-1.127,14.277,14.277,0,0,1-7.383,2.486,13.408,13.408,0,0,0,5.348-.854,13.874,13.874,0,0,0,2.334-1.177,14.833,14.833,0,0,1-7.682,2.574,13.962,13.962,0,0,0,5.557-.9,14.351,14.351,0,0,0,2.423-1.224,15.4,15.4,0,0,1-7.98,2.664,14.525,14.525,0,0,0,5.766-.937,15.07,15.07,0,0,0,2.513-1.273,15.918,15.918,0,0,1-8.279,2.756,15.045,15.045,0,0,0,5.973-.979,15.652,15.652,0,0,0,2.605-1.321,16.48,16.48,0,0,1-8.578,2.845,15.577,15.577,0,0,0,6.182-1.021,16.066,16.066,0,0,0,2.7-1.368,17.028,17.028,0,0,1-8.877,2.934,16.152,16.152,0,0,0,6.39-1.062,16.8,16.8,0,0,0,2.786-1.418,17.566,17.566,0,0,1-9.176,3.023,16.679,16.679,0,0,0,6.6-1.1,17.147,17.147,0,0,0,2.877-1.466,18.106,18.106,0,0,1-9.475,3.113,17.173,17.173,0,0,0,6.807-1.146" fill="#ff8366"/>
  </g>
</svg>
